<svg viewBox="0 0 303.94 235.14" xmlns="http://www.w3.org/2000/svg" xmlns:xlink="http://www.w3.org/1999/xlink" id="Calque_2" overflow="hidden"><defs></defs><g id="Layer_1"><g><path d="M29.55 59.1 274.39 59.1C290.71 59.1 303.94 45.87 303.94 29.55 303.94 13.23 290.72 0 274.39 0L29.55 0C13.23 0 0 13.23 0 29.55 0 45.87 13.23 59.1 29.55 59.1Z" stroke-width="0" fill="#00A2AF"/><path d="M270.11 117 270.11 81.31 33.84 81.31 33.84 117C33.84 181.94 87.03 235.14 151.97 235.14 216.91 235.14 270.11 181.94 270.11 117ZM151.97 205.55C124.68 205.55 102.57 183.43 102.57 156.15 102.57 128.87 124.69 106.75 151.97 106.75 179.25 106.75 201.38 128.87 201.38 156.15 201.38 183.43 179.26 205.55 151.97 205.55Z" stroke-width="0" fill="#3C3C3B"/><path d="M151.97 126.38C148.63 126.38 145.48 127.05 142.48 128.07 144.97 130.47 146.55 133.8 146.55 137.53 146.55 144.81 140.64 150.72 133.36 150.72 129.63 150.72 126.3 149.14 123.9 146.65 122.89 149.65 122.21 152.8 122.21 156.15 122.21 172.59 135.53 185.91 151.97 185.91 168.41 185.91 181.74 172.59 181.74 156.15 181.74 139.71 168.42 126.39 151.97 126.39Z" stroke-width="0" fill="#3C3C3B"/></g></g></svg>